ISO-10303-21;
HEADER;
/* Generated by software containing ST-Developer
 * from STEP Tools, Inc. (www.steptools.com) 
 */

FILE_DESCRIPTION(
/* description */ (''),
/* implementation_level */ '2;1');

FILE_NAME(
/* name */ 'tcrt-adapter.step',
/* time_stamp */ '2026-07-04T01:46:28+05:00',
/* author */ (''),
/* organization */ (''),
/* preprocessor_version */ 'ST-DEVELOPER v20.1',
/* originating_system */ 'Autodesk Translation Framework v15.8.0.0',
/* authorisation */ '');

FILE_SCHEMA (('AUTOMOTIVE_DESIGN { 1 0 10303 214 3 1 1 }'));
ENDSEC;

DATA;
#10=MECHANICAL_DESIGN_GEOMETRIC_PRESENTATION_REPRESENTATION('',(#17),#1282);
#11=ITEM_DEFINED_TRANSFORMATION($,$,#797,#854);
#12=(
REPRESENTATION_RELATIONSHIP($,$,#1293,#1292)
REPRESENTATION_RELATIONSHIP_WITH_TRANSFORMATION(#11)
SHAPE_REPRESENTATION_RELATIONSHIP()
);
#13=CONTEXT_DEPENDENT_SHAPE_REPRESENTATION(#12,#1291);
#14=NEXT_ASSEMBLY_USAGE_OCCURRENCE('TCRT_Sensor_Slider:1',
'TCRT_Sensor_Slider:1','TCRT_Sensor_Slider:1',#1295,#1296,
'TCRT_Sensor_Slider:1');
#15=SHAPE_REPRESENTATION_RELATIONSHIP('SRR','None',#1293,#16);
#16=ADVANCED_BREP_SHAPE_REPRESENTATION('',(#18),#1281);
#17=STYLED_ITEM('',(#1306),#18);
#18=MANIFOLD_SOLID_BREP('Body1',#783);
#19=CYLINDRICAL_SURFACE('',#806,1.15);
#20=CYLINDRICAL_SURFACE('',#810,1.15);
#21=CYLINDRICAL_SURFACE('',#814,1.15);
#22=CYLINDRICAL_SURFACE('',#818,1.15);
#23=CYLINDRICAL_SURFACE('',#822,1.15);
#24=CYLINDRICAL_SURFACE('',#824,5.);
#25=FACE_BOUND('',#108,.T.);
#26=FACE_BOUND('',#109,.T.);
#27=FACE_BOUND('',#110,.T.);
#28=FACE_BOUND('',#111,.T.);
#29=FACE_BOUND('',#112,.T.);
#30=FACE_BOUND('',#135,.T.);
#31=FACE_BOUND('',#136,.T.);
#32=FACE_BOUND('',#137,.T.);
#33=FACE_BOUND('',#138,.T.);
#34=FACE_BOUND('',#139,.T.);
#35=FACE_BOUND('',#154,.T.);
#36=FACE_BOUND('',#156,.T.);
#37=FACE_BOUND('',#157,.T.);
#38=FACE_BOUND('',#158,.T.);
#39=PLANE('',#801);
#40=PLANE('',#827);
#41=PLANE('',#828);
#42=PLANE('',#829);
#43=PLANE('',#830);
#44=PLANE('',#831);
#45=PLANE('',#832);
#46=PLANE('',#833);
#47=PLANE('',#834);
#48=PLANE('',#835);
#49=PLANE('',#836);
#50=PLANE('',#837);
#51=PLANE('',#838);
#52=PLANE('',#839);
#53=PLANE('',#840);
#54=PLANE('',#841);
#55=PLANE('',#842);
#56=PLANE('',#843);
#57=PLANE('',#844);
#58=PLANE('',#845);
#59=PLANE('',#846);
#60=PLANE('',#847);
#61=PLANE('',#848);
#62=PLANE('',#849);
#63=PLANE('',#850);
#64=PLANE('',#851);
#65=PLANE('',#852);
#66=PLANE('',#853);
#67=FACE_OUTER_BOUND('',#106,.T.);
#68=FACE_OUTER_BOUND('',#107,.T.);
#69=FACE_OUTER_BOUND('',#113,.T.);
#70=FACE_OUTER_BOUND('',#114,.T.);
#71=FACE_OUTER_BOUND('',#115,.T.);
#72=FACE_OUTER_BOUND('',#116,.T.);
#73=FACE_OUTER_BOUND('',#117,.T.);
#74=FACE_OUTER_BOUND('',#118,.T.);
#75=FACE_OUTER_BOUND('',#119,.T.);
#76=FACE_OUTER_BOUND('',#120,.T.);
#77=FACE_OUTER_BOUND('',#121,.T.);
#78=FACE_OUTER_BOUND('',#122,.T.);
#79=FACE_OUTER_BOUND('',#123,.T.);
#80=FACE_OUTER_BOUND('',#124,.T.);
#81=FACE_OUTER_BOUND('',#125,.T.);
#82=FACE_OUTER_BOUND('',#126,.T.);
#83=FACE_OUTER_BOUND('',#127,.T.);
#84=FACE_OUTER_BOUND('',#128,.T.);
#85=FACE_OUTER_BOUND('',#129,.T.);
#86=FACE_OUTER_BOUND('',#130,.T.);
#87=FACE_OUTER_BOUND('',#131,.T.);
#88=FACE_OUTER_BOUND('',#132,.T.);
#89=FACE_OUTER_BOUND('',#133,.T.);
#90=FACE_OUTER_BOUND('',#134,.T.);
#91=FACE_OUTER_BOUND('',#140,.T.);
#92=FACE_OUTER_BOUND('',#141,.T.);
#93=FACE_OUTER_BOUND('',#142,.T.);
#94=FACE_OUTER_BOUND('',#143,.T.);
#95=FACE_OUTER_BOUND('',#144,.T.);
#96=FACE_OUTER_BOUND('',#145,.T.);
#97=FACE_OUTER_BOUND('',#146,.T.);
#98=FACE_OUTER_BOUND('',#147,.T.);
#99=FACE_OUTER_BOUND('',#148,.T.);
#100=FACE_OUTER_BOUND('',#149,.T.);
#101=FACE_OUTER_BOUND('',#150,.T.);
#102=FACE_OUTER_BOUND('',#151,.T.);
#103=FACE_OUTER_BOUND('',#152,.T.);
#104=FACE_OUTER_BOUND('',#153,.T.);
#105=FACE_OUTER_BOUND('',#155,.T.);
#106=EDGE_LOOP('',(#527,#528,#529,#530));
#107=EDGE_LOOP('',(#531,#532,#533,#534,#535,#536,#537,#538,#539,#540,#541,
#542));
#108=EDGE_LOOP('',(#543));
#109=EDGE_LOOP('',(#544));
#110=EDGE_LOOP('',(#545));
#111=EDGE_LOOP('',(#546));
#112=EDGE_LOOP('',(#547));
#113=EDGE_LOOP('',(#548,#549,#550,#551));
#114=EDGE_LOOP('',(#552,#553,#554,#555));
#115=EDGE_LOOP('',(#556,#557,#558,#559));
#116=EDGE_LOOP('',(#560,#561,#562,#563));
#117=EDGE_LOOP('',(#564,#565,#566,#567));
#118=EDGE_LOOP('',(#568,#569,#570,#571));
#119=EDGE_LOOP('',(#572,#573,#574,#575));
#120=EDGE_LOOP('',(#576,#577,#578,#579));
#121=EDGE_LOOP('',(#580,#581,#582,#583));
#122=EDGE_LOOP('',(#584,#585,#586,#587));
#123=EDGE_LOOP('',(#588,#589,#590,#591,#592,#593));
#124=EDGE_LOOP('',(#594,#595,#596));
#125=EDGE_LOOP('',(#597,#598,#599,#600,#601,#602));
#126=EDGE_LOOP('',(#603,#604,#605));
#127=EDGE_LOOP('',(#606,#607,#608));
#128=EDGE_LOOP('',(#609,#610,#611,#612));
#129=EDGE_LOOP('',(#613,#614,#615));
#130=EDGE_LOOP('',(#616,#617,#618,#619));
#131=EDGE_LOOP('',(#620,#621,#622,#623,#624));
#132=EDGE_LOOP('',(#625,#626,#627,#628,#629));
#133=EDGE_LOOP('',(#630,#631,#632,#633));
#134=EDGE_LOOP('',(#634,#635,#636,#637));
#135=EDGE_LOOP('',(#638));
#136=EDGE_LOOP('',(#639));
#137=EDGE_LOOP('',(#640));
#138=EDGE_LOOP('',(#641));
#139=EDGE_LOOP('',(#642));
#140=EDGE_LOOP('',(#643,#644,#645,#646));
#141=EDGE_LOOP('',(#647,#648,#649,#650));
#142=EDGE_LOOP('',(#651,#652,#653,#654,#655));
#143=EDGE_LOOP('',(#656,#657,#658,#659));
#144=EDGE_LOOP('',(#660,#661,#662,#663,#664));
#145=EDGE_LOOP('',(#665,#666,#667,#668));
#146=EDGE_LOOP('',(#669,#670,#671,#672));
#147=EDGE_LOOP('',(#673,#674,#675,#676,#677));
#148=EDGE_LOOP('',(#678,#679,#680,#681));
#149=EDGE_LOOP('',(#682,#683,#684,#685,#686));
#150=EDGE_LOOP('',(#687,#688,#689,#690));
#151=EDGE_LOOP('',(#691,#692,#693,#694));
#152=EDGE_LOOP('',(#695,#696,#697,#698));
#153=EDGE_LOOP('',(#699,#700,#701,#702,#703,#704,#705,#706,#707,#708,#709,
#710,#711,#712,#713,#714,#715,#716,#717,#718,#719,#720));
#154=EDGE_LOOP('',(#721));
#155=EDGE_LOOP('',(#722,#723,#724,#725,#726,#727,#728,#729));
#156=EDGE_LOOP('',(#730));
#157=EDGE_LOOP('',(#731,#732,#733,#734));
#158=EDGE_LOOP('',(#735,#736,#737,#738));
#159=LINE('',#1068,#248);
#160=LINE('',#1073,#249);
#161=LINE('',#1075,#250);
#162=LINE('',#1077,#251);
#163=LINE('',#1079,#252);
#164=LINE('',#1081,#253);
#165=LINE('',#1083,#254);
#166=LINE('',#1085,#255);
#167=LINE('',#1087,#256);
#168=LINE('',#1089,#257);
#169=LINE('',#1091,#258);
#170=LINE('',#1093,#259);
#171=LINE('',#1094,#260);
#172=LINE('',#1105,#261);
#173=LINE('',#1109,#262);
#174=LINE('',#1113,#263);
#175=LINE('',#1117,#264);
#176=LINE('',#1121,#265);
#177=LINE('',#1125,#266);
#178=LINE('',#1129,#267);
#179=LINE('',#1133,#268);
#180=LINE('',#1137,#269);
#181=LINE('',#1143,#270);
#182=LINE('',#1147,#271);
#183=LINE('',#1149,#272);
#184=LINE('',#1151,#273);
#185=LINE('',#1153,#274);
#186=LINE('',#1154,#275);
#187=LINE('',#1156,#276);
#188=LINE('',#1159,#277);
#189=LINE('',#1161,#278);
#190=LINE('',#1163,#279);
#191=LINE('',#1165,#280);
#192=LINE('',#1166,#281);
#193=LINE('',#1168,#282);
#194=LINE('',#1170,#283);
#195=LINE('',#1173,#284);
#196=LINE('',#1175,#285);
#197=LINE('',#1176,#286);
#198=LINE('',#1178,#287);
#199=LINE('',#1181,#288);
#200=LINE('',#1183,#289);
#201=LINE('',#1184,#290);
#202=LINE('',#1187,#291);
#203=LINE('',#1189,#292);
#204=LINE('',#1191,#293);
#205=LINE('',#1192,#294);
#206=LINE('',#1195,#295);
#207=LINE('',#1197,#296);
#208=LINE('',#1199,#297);
#209=LINE('',#1200,#298);
#210=LINE('',#1202,#299);
#211=LINE('',#1204,#300);
#212=LINE('',#1207,#301);
#213=LINE('',#1209,#302);
#214=LINE('',#1210,#303);
#215=LINE('',#1213,#304);
#216=LINE('',#1215,#305);
#217=LINE('',#1216,#306);
#218=LINE('',#1220,#307);
#219=LINE('',#1221,#308);
#220=LINE('',#1223,#309);
#221=LINE('',#1224,#310);
#222=LINE('',#1227,#311);
#223=LINE('',#1228,#312);
#224=LINE('',#1231,#313);
#225=LINE('',#1233,#314);
#226=LINE('',#1234,#315);
#227=LINE('',#1236,#316);
#228=LINE('',#1237,#317);
#229=LINE('',#1241,#318);
#230=LINE('',#1243,#319);
#231=LINE('',#1245,#320);
#232=LINE('',#1246,#321);
#233=LINE('',#1249,#322);
#234=LINE('',#1250,#323);
#235=LINE('',#1251,#324);
#236=LINE('',#1254,#325);
#237=LINE('',#1255,#326);
#238=LINE('',#1257,#327);
#239=LINE('',#1258,#328);
#240=LINE('',#1262,#329);
#241=LINE('',#1264,#330);
#242=LINE('',#1266,#331);
#243=LINE('',#1267,#332);
#244=LINE('',#1269,#333);
#245=LINE('',#1270,#334);
#246=LINE('',#1272,#335);
#247=LINE('',#1273,#336);
#248=VECTOR('',#863,1.3);
#249=VECTOR('',#868,10.);
#250=VECTOR('',#869,10.);
#251=VECTOR('',#870,10.);
#252=VECTOR('',#871,10.);
#253=VECTOR('',#872,10.);
#254=VECTOR('',#873,10.);
#255=VECTOR('',#874,10.);
#256=VECTOR('',#875,10.);
#257=VECTOR('',#876,10.);
#258=VECTOR('',#877,10.);
#259=VECTOR('',#878,10.);
#260=VECTOR('',#879,10.);
#261=VECTOR('',#890,1.15);
#262=VECTOR('',#895,1.3);
#263=VECTOR('',#900,1.15);
#264=VECTOR('',#905,1.3);
#265=VECTOR('',#910,1.15);
#266=VECTOR('',#915,1.3);
#267=VECTOR('',#920,1.15);
#268=VECTOR('',#925,1.3);
#269=VECTOR('',#930,1.15);
#270=VECTOR('',#937,5.);
#271=VECTOR('',#942,10.);
#272=VECTOR('',#943,10.);
#273=VECTOR('',#944,10.);
#274=VECTOR('',#945,10.);
#275=VECTOR('',#946,10.);
#276=VECTOR('',#949,10.);
#277=VECTOR('',#952,10.);
#278=VECTOR('',#953,10.);
#279=VECTOR('',#954,10.);
#280=VECTOR('',#955,10.);
#281=VECTOR('',#956,10.);
#282=VECTOR('',#959,10.);
#283=VECTOR('',#962,10.);
#284=VECTOR('',#965,10.);
#285=VECTOR('',#966,10.);
#286=VECTOR('',#967,10.);
#287=VECTOR('',#970,10.);
#288=VECTOR('',#973,10.);
#289=VECTOR('',#974,10.);
#290=VECTOR('',#975,10.);
#291=VECTOR('',#978,10.);
#292=VECTOR('',#979,10.);
#293=VECTOR('',#980,10.);
#294=VECTOR('',#981,10.);
#295=VECTOR('',#984,10.);
#296=VECTOR('',#985,10.);
#297=VECTOR('',#986,10.);
#298=VECTOR('',#987,10.);
#299=VECTOR('',#990,10.);
#300=VECTOR('',#993,10.);
#301=VECTOR('',#996,10.);
#302=VECTOR('',#997,10.);
#303=VECTOR('',#998,10.);
#304=VECTOR('',#1001,10.);
#305=VECTOR('',#1002,10.);
#306=VECTOR('',#1003,10.);
#307=VECTOR('',#1006,10.);
#308=VECTOR('',#1007,10.);
#309=VECTOR('',#1008,10.);
#310=VECTOR('',#1009,10.);
#311=VECTOR('',#1012,10.);
#312=VECTOR('',#1013,10.);
#313=VECTOR('',#1016,10.);
#314=VECTOR('',#1017,10.);
#315=VECTOR('',#1018,10.);
#316=VECTOR('',#1021,10.);
#317=VECTOR('',#1022,10.);
#318=VECTOR('',#1025,10.);
#319=VECTOR('',#1026,10.);
#320=VECTOR('',#1027,10.);
#321=VECTOR('',#1028,10.);
#322=VECTOR('',#1031,10.);
#323=VECTOR('',#1032,10.);
#324=VECTOR('',#1033,10.);
#325=VECTOR('',#1036,10.);
#326=VECTOR('',#1037,10.);
#327=VECTOR('',#1040,10.);
#328=VECTOR('',#1041,10.);
#329=VECTOR('',#1044,10.);
#330=VECTOR('',#1045,10.);
#331=VECTOR('',#1046,10.);
#332=VECTOR('',#1047,10.);
#333=VECTOR('',#1050,10.);
#334=VECTOR('',#1051,10.);
#335=VECTOR('',#1054,10.);
#336=VECTOR('',#1055,10.);
#337=CIRCLE('',#799,1.45);
#338=CIRCLE('',#800,1.15);
#339=CIRCLE('',#802,1.45);
#340=CIRCLE('',#803,1.45);
#341=CIRCLE('',#804,1.45);
#342=CIRCLE('',#805,1.45);
#343=CIRCLE('',#807,1.15);
#344=CIRCLE('',#809,1.15);
#345=CIRCLE('',#811,1.15);
#346=CIRCLE('',#813,1.15);
#347=CIRCLE('',#815,1.15);
#348=CIRCLE('',#817,1.15);
#349=CIRCLE('',#819,1.15);
#350=CIRCLE('',#821,1.15);
#351=CIRCLE('',#823,1.15);
#352=CIRCLE('',#825,5.);
#353=CIRCLE('',#826,5.);
#354=VERTEX_POINT('',#1065);
#355=VERTEX_POINT('',#1067);
#356=VERTEX_POINT('',#1071);
#357=VERTEX_POINT('',#1072);
#358=VERTEX_POINT('',#1074);
#359=VERTEX_POINT('',#1076);
#360=VERTEX_POINT('',#1078);
#361=VERTEX_POINT('',#1080);
#362=VERTEX_POINT('',#1082);
#363=VERTEX_POINT('',#1084);
#364=VERTEX_POINT('',#1086);
#365=VERTEX_POINT('',#1088);
#366=VERTEX_POINT('',#1090);
#367=VERTEX_POINT('',#1092);
#368=VERTEX_POINT('',#1095);
#369=VERTEX_POINT('',#1097);
#370=VERTEX_POINT('',#1099);
#371=VERTEX_POINT('',#1101);
#372=VERTEX_POINT('',#1104);
#373=VERTEX_POINT('',#1108);
#374=VERTEX_POINT('',#1112);
#375=VERTEX_POINT('',#1116);
#376=VERTEX_POINT('',#1120);
#377=VERTEX_POINT('',#1124);
#378=VERTEX_POINT('',#1128);
#379=VERTEX_POINT('',#1132);
#380=VERTEX_POINT('',#1136);
#381=VERTEX_POINT('',#1140);
#382=VERTEX_POINT('',#1142);
#383=VERTEX_POINT('',#1146);
#384=VERTEX_POINT('',#1148);
#385=VERTEX_POINT('',#1150);
#386=VERTEX_POINT('',#1152);
#387=VERTEX_POINT('',#1158);
#388=VERTEX_POINT('',#1160);
#389=VERTEX_POINT('',#1162);
#390=VERTEX_POINT('',#1164);
#391=VERTEX_POINT('',#1172);
#392=VERTEX_POINT('',#1174);
#393=VERTEX_POINT('',#1180);
#394=VERTEX_POINT('',#1182);
#395=VERTEX_POINT('',#1186);
#396=VERTEX_POINT('',#1188);
#397=VERTEX_POINT('',#1190);
#398=VERTEX_POINT('',#1194);
#399=VERTEX_POINT('',#1196);
#400=VERTEX_POINT('',#1198);
#401=VERTEX_POINT('',#1206);
#402=VERTEX_POINT('',#1208);
#403=VERTEX_POINT('',#1212);
#404=VERTEX_POINT('',#1214);
#405=VERTEX_POINT('',#1218);
#406=VERTEX_POINT('',#1219);
#407=VERTEX_POINT('',#1222);
#408=VERTEX_POINT('',#1226);
#409=VERTEX_POINT('',#1230);
#410=VERTEX_POINT('',#1232);
#411=VERTEX_POINT('',#1239);
#412=VERTEX_POINT('',#1240);
#413=VERTEX_POINT('',#1242);
#414=VERTEX_POINT('',#1244);
#415=VERTEX_POINT('',#1248);
#416=VERTEX_POINT('',#1253);
#417=VERTEX_POINT('',#1260);
#418=VERTEX_POINT('',#1261);
#419=VERTEX_POINT('',#1263);
#420=VERTEX_POINT('',#1265);
#421=EDGE_CURVE('',#354,#354,#337,.T.);
#422=EDGE_CURVE('',#354,#355,#159,.T.);
#423=EDGE_CURVE('',#355,#355,#338,.T.);
#424=EDGE_CURVE('',#356,#357,#160,.T.);
#425=EDGE_CURVE('',#358,#357,#161,.T.);
#426=EDGE_CURVE('',#358,#359,#162,.T.);
#427=EDGE_CURVE('',#359,#360,#163,.T.);
#428=EDGE_CURVE('',#360,#361,#164,.T.);
#429=EDGE_CURVE('',#362,#361,#165,.T.);
#430=EDGE_CURVE('',#362,#363,#166,.T.);
#431=EDGE_CURVE('',#363,#364,#167,.T.);
#432=EDGE_CURVE('',#364,#365,#168,.T.);
#433=EDGE_CURVE('',#366,#365,#169,.T.);
#434=EDGE_CURVE('',#366,#367,#170,.T.);
#435=EDGE_CURVE('',#367,#356,#171,.T.);
#436=EDGE_CURVE('',#368,#368,#339,.T.);
#437=EDGE_CURVE('',#369,#369,#340,.T.);
#438=EDGE_CURVE('',#370,#370,#341,.T.);
#439=EDGE_CURVE('',#371,#371,#342,.T.);
#440=EDGE_CURVE('',#355,#372,#172,.T.);
#441=EDGE_CURVE('',#372,#372,#343,.T.);
#442=EDGE_CURVE('',#368,#373,#173,.T.);
#443=EDGE_CURVE('',#373,#373,#344,.T.);
#444=EDGE_CURVE('',#373,#374,#174,.T.);
#445=EDGE_CURVE('',#374,#374,#345,.T.);
#446=EDGE_CURVE('',#371,#375,#175,.T.);
#447=EDGE_CURVE('',#375,#375,#346,.T.);
#448=EDGE_CURVE('',#375,#376,#176,.T.);
#449=EDGE_CURVE('',#376,#376,#347,.T.);
#450=EDGE_CURVE('',#369,#377,#177,.T.);
#451=EDGE_CURVE('',#377,#377,#348,.T.);
#452=EDGE_CURVE('',#377,#378,#178,.T.);
#453=EDGE_CURVE('',#378,#378,#349,.T.);
#454=EDGE_CURVE('',#370,#379,#179,.T.);
#455=EDGE_CURVE('',#379,#379,#350,.T.);
#456=EDGE_CURVE('',#379,#380,#180,.T.);
#457=EDGE_CURVE('',#380,#380,#351,.T.);
#458=EDGE_CURVE('',#381,#381,#352,.T.);
#459=EDGE_CURVE('',#381,#382,#181,.T.);
#460=EDGE_CURVE('',#382,#382,#353,.T.);
#461=EDGE_CURVE('',#383,#367,#182,.T.);
#462=EDGE_CURVE('',#384,#383,#183,.T.);
#463=EDGE_CURVE('',#384,#385,#184,.T.);
#464=EDGE_CURVE('',#386,#385,#185,.T.);
#465=EDGE_CURVE('',#356,#386,#186,.T.);
#466=EDGE_CURVE('',#357,#386,#187,.T.);
#467=EDGE_CURVE('',#360,#387,#188,.T.);
#468=EDGE_CURVE('',#388,#359,#189,.T.);
#469=EDGE_CURVE('',#389,#388,#190,.T.);
#470=EDGE_CURVE('',#390,#389,#191,.T.);
#471=EDGE_CURVE('',#387,#390,#192,.T.);
#472=EDGE_CURVE('',#361,#387,#193,.T.);
#473=EDGE_CURVE('',#383,#366,#194,.T.);
#474=EDGE_CURVE('',#391,#385,#195,.T.);
#475=EDGE_CURVE('',#384,#392,#196,.T.);
#476=EDGE_CURVE('',#392,#391,#197,.T.);
#477=EDGE_CURVE('',#388,#358,#198,.T.);
#478=EDGE_CURVE('',#393,#390,#199,.T.);
#479=EDGE_CURVE('',#389,#394,#200,.T.);
#480=EDGE_CURVE('',#394,#393,#201,.T.);
#481=EDGE_CURVE('',#364,#395,#202,.T.);
#482=EDGE_CURVE('',#396,#395,#203,.T.);
#483=EDGE_CURVE('',#397,#396,#204,.T.);
#484=EDGE_CURVE('',#365,#397,#205,.T.);
#485=EDGE_CURVE('',#398,#362,#206,.T.);
#486=EDGE_CURVE('',#398,#399,#207,.T.);
#487=EDGE_CURVE('',#400,#399,#208,.T.);
#488=EDGE_CURVE('',#363,#400,#209,.T.);
#489=EDGE_CURVE('',#395,#400,#210,.T.);
#490=EDGE_CURVE('',#399,#396,#211,.T.);
#491=EDGE_CURVE('',#397,#401,#212,.T.);
#492=EDGE_CURVE('',#401,#402,#213,.T.);
#493=EDGE_CURVE('',#365,#402,#214,.T.);
#494=EDGE_CURVE('',#403,#362,#215,.T.);
#495=EDGE_CURVE('',#404,#403,#216,.T.);
#496=EDGE_CURVE('',#404,#398,#217,.T.);
#497=EDGE_CURVE('',#405,#406,#218,.T.);
#498=EDGE_CURVE('',#405,#392,#219,.T.);
#499=EDGE_CURVE('',#407,#384,#220,.T.);
#500=EDGE_CURVE('',#406,#407,#221,.T.);
#501=EDGE_CURVE('',#408,#405,#222,.T.);
#502=EDGE_CURVE('',#408,#391,#223,.T.);
#503=EDGE_CURVE('',#409,#408,#224,.T.);
#504=EDGE_CURVE('',#409,#410,#225,.T.);
#505=EDGE_CURVE('',#385,#410,#226,.T.);
#506=EDGE_CURVE('',#406,#409,#227,.T.);
#507=EDGE_CURVE('',#410,#407,#228,.T.);
#508=EDGE_CURVE('',#411,#412,#229,.T.);
#509=EDGE_CURVE('',#411,#413,#230,.T.);
#510=EDGE_CURVE('',#414,#413,#231,.T.);
#511=EDGE_CURVE('',#412,#414,#232,.T.);
#512=EDGE_CURVE('',#415,#411,#233,.T.);
#513=EDGE_CURVE('',#415,#394,#234,.T.);
#514=EDGE_CURVE('',#413,#389,#235,.T.);
#515=EDGE_CURVE('',#416,#415,#236,.T.);
#516=EDGE_CURVE('',#416,#393,#237,.T.);
#517=EDGE_CURVE('',#412,#416,#238,.T.);
#518=EDGE_CURVE('',#390,#414,#239,.T.);
#519=EDGE_CURVE('',#417,#418,#240,.T.);
#520=EDGE_CURVE('',#418,#419,#241,.T.);
#521=EDGE_CURVE('',#420,#419,#242,.T.);
#522=EDGE_CURVE('',#417,#420,#243,.T.);
#523=EDGE_CURVE('',#401,#417,#244,.T.);
#524=EDGE_CURVE('',#402,#420,#245,.T.);
#525=EDGE_CURVE('',#418,#404,#246,.T.);
#526=EDGE_CURVE('',#419,#403,#247,.T.);
#527=ORIENTED_EDGE('',*,*,#421,.T.);
#528=ORIENTED_EDGE('',*,*,#422,.T.);
#529=ORIENTED_EDGE('',*,*,#423,.T.);
#530=ORIENTED_EDGE('',*,*,#422,.F.);
#531=ORIENTED_EDGE('',*,*,#424,.T.);
#532=ORIENTED_EDGE('',*,*,#425,.F.);
#533=ORIENTED_EDGE('',*,*,#426,.T.);
#534=ORIENTED_EDGE('',*,*,#427,.T.);
#535=ORIENTED_EDGE('',*,*,#428,.T.);
#536=ORIENTED_EDGE('',*,*,#429,.F.);
#537=ORIENTED_EDGE('',*,*,#430,.T.);
#538=ORIENTED_EDGE('',*,*,#431,.T.);
#539=ORIENTED_EDGE('',*,*,#432,.T.);
#540=ORIENTED_EDGE('',*,*,#433,.F.);
#541=ORIENTED_EDGE('',*,*,#434,.T.);
#542=ORIENTED_EDGE('',*,*,#435,.T.);
#543=ORIENTED_EDGE('',*,*,#436,.F.);
#544=ORIENTED_EDGE('',*,*,#437,.F.);
#545=ORIENTED_EDGE('',*,*,#438,.F.);
#546=ORIENTED_EDGE('',*,*,#439,.F.);
#547=ORIENTED_EDGE('',*,*,#421,.F.);
#548=ORIENTED_EDGE('',*,*,#423,.F.);
#549=ORIENTED_EDGE('',*,*,#440,.T.);
#550=ORIENTED_EDGE('',*,*,#441,.F.);
#551=ORIENTED_EDGE('',*,*,#440,.F.);
#552=ORIENTED_EDGE('',*,*,#436,.T.);
#553=ORIENTED_EDGE('',*,*,#442,.T.);
#554=ORIENTED_EDGE('',*,*,#443,.T.);
#555=ORIENTED_EDGE('',*,*,#442,.F.);
#556=ORIENTED_EDGE('',*,*,#443,.F.);
#557=ORIENTED_EDGE('',*,*,#444,.T.);
#558=ORIENTED_EDGE('',*,*,#445,.F.);
#559=ORIENTED_EDGE('',*,*,#444,.F.);
#560=ORIENTED_EDGE('',*,*,#439,.T.);
#561=ORIENTED_EDGE('',*,*,#446,.T.);
#562=ORIENTED_EDGE('',*,*,#447,.T.);
#563=ORIENTED_EDGE('',*,*,#446,.F.);
#564=ORIENTED_EDGE('',*,*,#447,.F.);
#565=ORIENTED_EDGE('',*,*,#448,.T.);
#566=ORIENTED_EDGE('',*,*,#449,.F.);
#567=ORIENTED_EDGE('',*,*,#448,.F.);
#568=ORIENTED_EDGE('',*,*,#437,.T.);
#569=ORIENTED_EDGE('',*,*,#450,.T.);
#570=ORIENTED_EDGE('',*,*,#451,.T.);
#571=ORIENTED_EDGE('',*,*,#450,.F.);
#572=ORIENTED_EDGE('',*,*,#451,.F.);
#573=ORIENTED_EDGE('',*,*,#452,.T.);
#574=ORIENTED_EDGE('',*,*,#453,.F.);
#575=ORIENTED_EDGE('',*,*,#452,.F.);
#576=ORIENTED_EDGE('',*,*,#438,.T.);
#577=ORIENTED_EDGE('',*,*,#454,.T.);
#578=ORIENTED_EDGE('',*,*,#455,.T.);
#579=ORIENTED_EDGE('',*,*,#454,.F.);
#580=ORIENTED_EDGE('',*,*,#455,.F.);
#581=ORIENTED_EDGE('',*,*,#456,.T.);
#582=ORIENTED_EDGE('',*,*,#457,.F.);
#583=ORIENTED_EDGE('',*,*,#456,.F.);
#584=ORIENTED_EDGE('',*,*,#458,.F.);
#585=ORIENTED_EDGE('',*,*,#459,.T.);
#586=ORIENTED_EDGE('',*,*,#460,.F.);
#587=ORIENTED_EDGE('',*,*,#459,.F.);
#588=ORIENTED_EDGE('',*,*,#461,.F.);
#589=ORIENTED_EDGE('',*,*,#462,.F.);
#590=ORIENTED_EDGE('',*,*,#463,.T.);
#591=ORIENTED_EDGE('',*,*,#464,.F.);
#592=ORIENTED_EDGE('',*,*,#465,.F.);
#593=ORIENTED_EDGE('',*,*,#435,.F.);
#594=ORIENTED_EDGE('',*,*,#465,.T.);
#595=ORIENTED_EDGE('',*,*,#466,.F.);
#596=ORIENTED_EDGE('',*,*,#424,.F.);
#597=ORIENTED_EDGE('',*,*,#467,.F.);
#598=ORIENTED_EDGE('',*,*,#427,.F.);
#599=ORIENTED_EDGE('',*,*,#468,.F.);
#600=ORIENTED_EDGE('',*,*,#469,.F.);
#601=ORIENTED_EDGE('',*,*,#470,.F.);
#602=ORIENTED_EDGE('',*,*,#471,.F.);
#603=ORIENTED_EDGE('',*,*,#467,.T.);
#604=ORIENTED_EDGE('',*,*,#472,.F.);
#605=ORIENTED_EDGE('',*,*,#428,.F.);
#606=ORIENTED_EDGE('',*,*,#461,.T.);
#607=ORIENTED_EDGE('',*,*,#434,.F.);
#608=ORIENTED_EDGE('',*,*,#473,.F.);
#609=ORIENTED_EDGE('',*,*,#474,.T.);
#610=ORIENTED_EDGE('',*,*,#463,.F.);
#611=ORIENTED_EDGE('',*,*,#475,.T.);
#612=ORIENTED_EDGE('',*,*,#476,.T.);
#613=ORIENTED_EDGE('',*,*,#468,.T.);
#614=ORIENTED_EDGE('',*,*,#426,.F.);
#615=ORIENTED_EDGE('',*,*,#477,.F.);
#616=ORIENTED_EDGE('',*,*,#478,.T.);
#617=ORIENTED_EDGE('',*,*,#470,.T.);
#618=ORIENTED_EDGE('',*,*,#479,.T.);
#619=ORIENTED_EDGE('',*,*,#480,.T.);
#620=ORIENTED_EDGE('',*,*,#432,.F.);
#621=ORIENTED_EDGE('',*,*,#481,.T.);
#622=ORIENTED_EDGE('',*,*,#482,.F.);
#623=ORIENTED_EDGE('',*,*,#483,.F.);
#624=ORIENTED_EDGE('',*,*,#484,.F.);
#625=ORIENTED_EDGE('',*,*,#485,.F.);
#626=ORIENTED_EDGE('',*,*,#486,.T.);
#627=ORIENTED_EDGE('',*,*,#487,.F.);
#628=ORIENTED_EDGE('',*,*,#488,.F.);
#629=ORIENTED_EDGE('',*,*,#430,.F.);
#630=ORIENTED_EDGE('',*,*,#431,.F.);
#631=ORIENTED_EDGE('',*,*,#488,.T.);
#632=ORIENTED_EDGE('',*,*,#489,.F.);
#633=ORIENTED_EDGE('',*,*,#481,.F.);
#634=ORIENTED_EDGE('',*,*,#489,.T.);
#635=ORIENTED_EDGE('',*,*,#487,.T.);
#636=ORIENTED_EDGE('',*,*,#490,.T.);
#637=ORIENTED_EDGE('',*,*,#482,.T.);
#638=ORIENTED_EDGE('',*,*,#449,.T.);
#639=ORIENTED_EDGE('',*,*,#453,.T.);
#640=ORIENTED_EDGE('',*,*,#445,.T.);
#641=ORIENTED_EDGE('',*,*,#457,.T.);
#642=ORIENTED_EDGE('',*,*,#441,.T.);
#643=ORIENTED_EDGE('',*,*,#484,.T.);
#644=ORIENTED_EDGE('',*,*,#491,.T.);
#645=ORIENTED_EDGE('',*,*,#492,.T.);
#646=ORIENTED_EDGE('',*,*,#493,.F.);
#647=ORIENTED_EDGE('',*,*,#485,.T.);
#648=ORIENTED_EDGE('',*,*,#494,.F.);
#649=ORIENTED_EDGE('',*,*,#495,.F.);
#650=ORIENTED_EDGE('',*,*,#496,.T.);
#651=ORIENTED_EDGE('',*,*,#497,.F.);
#652=ORIENTED_EDGE('',*,*,#498,.T.);
#653=ORIENTED_EDGE('',*,*,#475,.F.);
#654=ORIENTED_EDGE('',*,*,#499,.F.);
#655=ORIENTED_EDGE('',*,*,#500,.F.);
#656=ORIENTED_EDGE('',*,*,#501,.F.);
#657=ORIENTED_EDGE('',*,*,#502,.T.);
#658=ORIENTED_EDGE('',*,*,#476,.F.);
#659=ORIENTED_EDGE('',*,*,#498,.F.);
#660=ORIENTED_EDGE('',*,*,#503,.F.);
#661=ORIENTED_EDGE('',*,*,#504,.T.);
#662=ORIENTED_EDGE('',*,*,#505,.F.);
#663=ORIENTED_EDGE('',*,*,#474,.F.);
#664=ORIENTED_EDGE('',*,*,#502,.F.);
#665=ORIENTED_EDGE('',*,*,#506,.F.);
#666=ORIENTED_EDGE('',*,*,#500,.T.);
#667=ORIENTED_EDGE('',*,*,#507,.F.);
#668=ORIENTED_EDGE('',*,*,#504,.F.);
#669=ORIENTED_EDGE('',*,*,#508,.F.);
#670=ORIENTED_EDGE('',*,*,#509,.T.);
#671=ORIENTED_EDGE('',*,*,#510,.F.);
#672=ORIENTED_EDGE('',*,*,#511,.F.);
#673=ORIENTED_EDGE('',*,*,#512,.F.);
#674=ORIENTED_EDGE('',*,*,#513,.T.);
#675=ORIENTED_EDGE('',*,*,#479,.F.);
#676=ORIENTED_EDGE('',*,*,#514,.F.);
#677=ORIENTED_EDGE('',*,*,#509,.F.);
#678=ORIENTED_EDGE('',*,*,#515,.F.);
#679=ORIENTED_EDGE('',*,*,#516,.T.);
#680=ORIENTED_EDGE('',*,*,#480,.F.);
#681=ORIENTED_EDGE('',*,*,#513,.F.);
#682=ORIENTED_EDGE('',*,*,#517,.F.);
#683=ORIENTED_EDGE('',*,*,#511,.T.);
#684=ORIENTED_EDGE('',*,*,#518,.F.);
#685=ORIENTED_EDGE('',*,*,#478,.F.);
#686=ORIENTED_EDGE('',*,*,#516,.F.);
#687=ORIENTED_EDGE('',*,*,#519,.T.);
#688=ORIENTED_EDGE('',*,*,#520,.T.);
#689=ORIENTED_EDGE('',*,*,#521,.F.);
#690=ORIENTED_EDGE('',*,*,#522,.F.);
#691=ORIENTED_EDGE('',*,*,#523,.T.);
#692=ORIENTED_EDGE('',*,*,#522,.T.);
#693=ORIENTED_EDGE('',*,*,#524,.F.);
#694=ORIENTED_EDGE('',*,*,#492,.F.);
#695=ORIENTED_EDGE('',*,*,#525,.T.);
#696=ORIENTED_EDGE('',*,*,#495,.T.);
#697=ORIENTED_EDGE('',*,*,#526,.F.);
#698=ORIENTED_EDGE('',*,*,#520,.F.);
#699=ORIENTED_EDGE('',*,*,#464,.T.);
#700=ORIENTED_EDGE('',*,*,#505,.T.);
#701=ORIENTED_EDGE('',*,*,#507,.T.);
#702=ORIENTED_EDGE('',*,*,#499,.T.);
#703=ORIENTED_EDGE('',*,*,#462,.T.);
#704=ORIENTED_EDGE('',*,*,#473,.T.);
#705=ORIENTED_EDGE('',*,*,#433,.T.);
#706=ORIENTED_EDGE('',*,*,#493,.T.);
#707=ORIENTED_EDGE('',*,*,#524,.T.);
#708=ORIENTED_EDGE('',*,*,#521,.T.);
#709=ORIENTED_EDGE('',*,*,#526,.T.);
#710=ORIENTED_EDGE('',*,*,#494,.T.);
#711=ORIENTED_EDGE('',*,*,#429,.T.);
#712=ORIENTED_EDGE('',*,*,#472,.T.);
#713=ORIENTED_EDGE('',*,*,#471,.T.);
#714=ORIENTED_EDGE('',*,*,#518,.T.);
#715=ORIENTED_EDGE('',*,*,#510,.T.);
#716=ORIENTED_EDGE('',*,*,#514,.T.);
#717=ORIENTED_EDGE('',*,*,#469,.T.);
#718=ORIENTED_EDGE('',*,*,#477,.T.);
#719=ORIENTED_EDGE('',*,*,#425,.T.);
#720=ORIENTED_EDGE('',*,*,#466,.T.);
#721=ORIENTED_EDGE('',*,*,#458,.T.);
#722=ORIENTED_EDGE('',*,*,#525,.F.);
#723=ORIENTED_EDGE('',*,*,#519,.F.);
#724=ORIENTED_EDGE('',*,*,#523,.F.);
#725=ORIENTED_EDGE('',*,*,#491,.F.);
#726=ORIENTED_EDGE('',*,*,#483,.T.);
#727=ORIENTED_EDGE('',*,*,#490,.F.);
#728=ORIENTED_EDGE('',*,*,#486,.F.);
#729=ORIENTED_EDGE('',*,*,#496,.F.);
#730=ORIENTED_EDGE('',*,*,#460,.T.);
#731=ORIENTED_EDGE('',*,*,#497,.T.);
#732=ORIENTED_EDGE('',*,*,#506,.T.);
#733=ORIENTED_EDGE('',*,*,#503,.T.);
#734=ORIENTED_EDGE('',*,*,#501,.T.);
#735=ORIENTED_EDGE('',*,*,#508,.T.);
#736=ORIENTED_EDGE('',*,*,#517,.T.);
#737=ORIENTED_EDGE('',*,*,#515,.T.);
#738=ORIENTED_EDGE('',*,*,#512,.T.);
#739=CONICAL_SURFACE('',#798,1.3,0.785398163397448);
#740=CONICAL_SURFACE('',#808,1.3,0.785398163397452);
#741=CONICAL_SURFACE('',#812,1.3,0.785398163397451);
#742=CONICAL_SURFACE('',#816,1.3,0.785398163397452);
#743=CONICAL_SURFACE('',#820,1.3,0.785398163397448);
#744=ADVANCED_FACE('',(#67),#739,.F.);
#745=ADVANCED_FACE('',(#68,#25,#26,#27,#28,#29),#39,.F.);
#746=ADVANCED_FACE('',(#69),#19,.F.);
#747=ADVANCED_FACE('',(#70),#740,.F.);
#748=ADVANCED_FACE('',(#71),#20,.F.);
#749=ADVANCED_FACE('',(#72),#741,.F.);
#750=ADVANCED_FACE('',(#73),#21,.F.);
#751=ADVANCED_FACE('',(#74),#742,.F.);
#752=ADVANCED_FACE('',(#75),#22,.F.);
#753=ADVANCED_FACE('',(#76),#743,.F.);
#754=ADVANCED_FACE('',(#77),#23,.F.);
#755=ADVANCED_FACE('',(#78),#24,.F.);
#756=ADVANCED_FACE('',(#79),#40,.F.);
#757=ADVANCED_FACE('',(#80),#41,.T.);
#758=ADVANCED_FACE('',(#81),#42,.F.);
#759=ADVANCED_FACE('',(#82),#43,.T.);
#760=ADVANCED_FACE('',(#83),#44,.T.);
#761=ADVANCED_FACE('',(#84),#45,.F.);
#762=ADVANCED_FACE('',(#85),#46,.T.);
#763=ADVANCED_FACE('',(#86),#47,.F.);
#764=ADVANCED_FACE('',(#87),#48,.T.);
#765=ADVANCED_FACE('',(#88),#49,.T.);
#766=ADVANCED_FACE('',(#89),#50,.T.);
#767=ADVANCED_FACE('',(#90,#30,#31,#32,#33,#34),#51,.T.);
#768=ADVANCED_FACE('',(#91),#52,.T.);
#769=ADVANCED_FACE('',(#92),#53,.T.);
#770=ADVANCED_FACE('',(#93),#54,.F.);
#771=ADVANCED_FACE('',(#94),#55,.F.);
#772=ADVANCED_FACE('',(#95),#56,.F.);
#773=ADVANCED_FACE('',(#96),#57,.F.);
#774=ADVANCED_FACE('',(#97),#58,.F.);
#775=ADVANCED_FACE('',(#98),#59,.F.);
#776=ADVANCED_FACE('',(#99),#60,.F.);
#777=ADVANCED_FACE('',(#100),#61,.F.);
#778=ADVANCED_FACE('',(#101),#62,.T.);
#779=ADVANCED_FACE('',(#102),#63,.T.);
#780=ADVANCED_FACE('',(#103),#64,.T.);
#781=ADVANCED_FACE('',(#104,#35),#65,.T.);
#782=ADVANCED_FACE('',(#105,#36,#37,#38),#66,.F.);
#783=CLOSED_SHELL('',(#744,#745,#746,#747,#748,#749,#750,#751,#752,#753,
#754,#755,#756,#757,#758,#759,#760,#761,#762,#763,#764,#765,#766,#767,#768,
#769,#770,#771,#772,#773,#774,#775,#776,#777,#778,#779,#780,#781,#782));
#784=DERIVED_UNIT_ELEMENT(#786,1.);
#785=DERIVED_UNIT_ELEMENT(#1284,-3.);
#786=(
MASS_UNIT()
NAMED_UNIT(*)
SI_UNIT(.KILO.,.GRAM.)
);
#787=DERIVED_UNIT((#784,#785));
#788=MEASURE_REPRESENTATION_ITEM('density measure',
POSITIVE_RATIO_MEASURE(7850.),#787);
#789=PROPERTY_DEFINITION_REPRESENTATION(#794,#791);
#790=PROPERTY_DEFINITION_REPRESENTATION(#795,#792);
#791=REPRESENTATION('material name',(#793),#1281);
#792=REPRESENTATION('density',(#788),#1281);
#793=DESCRIPTIVE_REPRESENTATION_ITEM('Steel','Steel');
#794=PROPERTY_DEFINITION('material property','material name',#1296);
#795=PROPERTY_DEFINITION('material property','density of part',#1296);
#796=AXIS2_PLACEMENT_3D('',#1062,#855,#856);
#797=AXIS2_PLACEMENT_3D('',#1063,#857,#858);
#798=AXIS2_PLACEMENT_3D('',#1064,#859,#860);
#799=AXIS2_PLACEMENT_3D('',#1066,#861,#862);
#800=AXIS2_PLACEMENT_3D('',#1069,#864,#865);
#801=AXIS2_PLACEMENT_3D('',#1070,#866,#867);
#802=AXIS2_PLACEMENT_3D('',#1096,#880,#881);
#803=AXIS2_PLACEMENT_3D('',#1098,#882,#883);
#804=AXIS2_PLACEMENT_3D('',#1100,#884,#885);
#805=AXIS2_PLACEMENT_3D('',#1102,#886,#887);
#806=AXIS2_PLACEMENT_3D('',#1103,#888,#889);
#807=AXIS2_PLACEMENT_3D('',#1106,#891,#892);
#808=AXIS2_PLACEMENT_3D('',#1107,#893,#894);
#809=AXIS2_PLACEMENT_3D('',#1110,#896,#897);
#810=AXIS2_PLACEMENT_3D('',#1111,#898,#899);
#811=AXIS2_PLACEMENT_3D('',#1114,#901,#902);
#812=AXIS2_PLACEMENT_3D('',#1115,#903,#904);
#813=AXIS2_PLACEMENT_3D('',#1118,#906,#907);
#814=AXIS2_PLACEMENT_3D('',#1119,#908,#909);
#815=AXIS2_PLACEMENT_3D('',#1122,#911,#912);
#816=AXIS2_PLACEMENT_3D('',#1123,#913,#914);
#817=AXIS2_PLACEMENT_3D('',#1126,#916,#917);
#818=AXIS2_PLACEMENT_3D('',#1127,#918,#919);
#819=AXIS2_PLACEMENT_3D('',#1130,#921,#922);
#820=AXIS2_PLACEMENT_3D('',#1131,#923,#924);
#821=AXIS2_PLACEMENT_3D('',#1134,#926,#927);
#822=AXIS2_PLACEMENT_3D('',#1135,#928,#929);
#823=AXIS2_PLACEMENT_3D('',#1138,#931,#932);
#824=AXIS2_PLACEMENT_3D('',#1139,#933,#934);
#825=AXIS2_PLACEMENT_3D('',#1141,#935,#936);
#826=AXIS2_PLACEMENT_3D('',#1144,#938,#939);
#827=AXIS2_PLACEMENT_3D('',#1145,#940,#941);
#828=AXIS2_PLACEMENT_3D('',#1155,#947,#948);
#829=AXIS2_PLACEMENT_3D('',#1157,#950,#951);
#830=AXIS2_PLACEMENT_3D('',#1167,#957,#958);
#831=AXIS2_PLACEMENT_3D('',#1169,#960,#961);
#832=AXIS2_PLACEMENT_3D('',#1171,#963,#964);
#833=AXIS2_PLACEMENT_3D('',#1177,#968,#969);
#834=AXIS2_PLACEMENT_3D('',#1179,#971,#972);
#835=AXIS2_PLACEMENT_3D('',#1185,#976,#977);
#836=AXIS2_PLACEMENT_3D('',#1193,#982,#983);
#837=AXIS2_PLACEMENT_3D('',#1201,#988,#989);
#838=AXIS2_PLACEMENT_3D('',#1203,#991,#992);
#839=AXIS2_PLACEMENT_3D('',#1205,#994,#995);
#840=AXIS2_PLACEMENT_3D('',#1211,#999,#1000);
#841=AXIS2_PLACEMENT_3D('',#1217,#1004,#1005);
#842=AXIS2_PLACEMENT_3D('',#1225,#1010,#1011);
#843=AXIS2_PLACEMENT_3D('',#1229,#1014,#1015);
#844=AXIS2_PLACEMENT_3D('',#1235,#1019,#1020);
#845=AXIS2_PLACEMENT_3D('',#1238,#1023,#1024);
#846=AXIS2_PLACEMENT_3D('',#1247,#1029,#1030);
#847=AXIS2_PLACEMENT_3D('',#1252,#1034,#1035);
#848=AXIS2_PLACEMENT_3D('',#1256,#1038,#1039);
#849=AXIS2_PLACEMENT_3D('',#1259,#1042,#1043);
#850=AXIS2_PLACEMENT_3D('',#1268,#1048,#1049);
#851=AXIS2_PLACEMENT_3D('',#1271,#1052,#1053);
#852=AXIS2_PLACEMENT_3D('',#1274,#1056,#1057);
#853=AXIS2_PLACEMENT_3D('',#1275,#1058,#1059);
#854=AXIS2_PLACEMENT_3D('',#1276,#1060,#1061);
#855=DIRECTION('axis',(0.,0.,1.));
#856=DIRECTION('refdir',(1.,0.,0.));
#857=DIRECTION('axis',(0.,0.,1.));
#858=DIRECTION('refdir',(1.,0.,0.));
#859=DIRECTION('center_axis',(0.,0.,1.));
#860=DIRECTION('ref_axis',(-1.,0.,0.));
#861=DIRECTION('center_axis',(0.,0.,1.));
#862=DIRECTION('ref_axis',(-1.,0.,0.));
#863=DIRECTION('',(-0.707106781186548,-8.65956056235493E-17,-0.707106781186548));
#864=DIRECTION('center_axis',(0.,0.,-1.));
#865=DIRECTION('ref_axis',(-1.,0.,0.));
#866=DIRECTION('center_axis',(0.,0.,-1.));
#867=DIRECTION('ref_axis',(1.,0.,0.));
#868=DIRECTION('',(0.,-1.,0.));
#869=DIRECTION('',(-1.,0.,0.));
#870=DIRECTION('',(0.,1.,0.));
#871=DIRECTION('',(1.,0.,0.));
#872=DIRECTION('',(0.,-1.,0.));
#873=DIRECTION('',(-1.,0.,0.));
#874=DIRECTION('',(0.,1.,0.));
#875=DIRECTION('',(-1.,0.,0.));
#876=DIRECTION('',(0.,-1.,0.));
#877=DIRECTION('',(-1.,0.,0.));
#878=DIRECTION('',(0.,1.,0.));
#879=DIRECTION('',(1.,0.,0.));
#880=DIRECTION('center_axis',(0.,0.,1.));
#881=DIRECTION('ref_axis',(-1.,0.,0.));
#882=DIRECTION('center_axis',(0.,0.,1.));
#883=DIRECTION('ref_axis',(-1.,0.,0.));
#884=DIRECTION('center_axis',(0.,0.,1.));
#885=DIRECTION('ref_axis',(-1.,0.,0.));
#886=DIRECTION('center_axis',(0.,0.,1.));
#887=DIRECTION('ref_axis',(-1.,0.,0.));
#888=DIRECTION('center_axis',(0.,0.,-1.));
#889=DIRECTION('ref_axis',(-1.,0.,0.));
#890=DIRECTION('',(0.,0.,-1.));
#891=DIRECTION('center_axis',(0.,0.,1.));
#892=DIRECTION('ref_axis',(-1.,0.,0.));
#893=DIRECTION('center_axis',(0.,0.,1.));
#894=DIRECTION('ref_axis',(-1.,0.,0.));
#895=DIRECTION('',(-0.70710678118655,-8.65956056235496E-17,-0.707106781186545));
#896=DIRECTION('center_axis',(0.,0.,-1.));
#897=DIRECTION('ref_axis',(-1.,0.,0.));
#898=DIRECTION('center_axis',(0.,0.,-1.));
#899=DIRECTION('ref_axis',(-1.,0.,0.));
#900=DIRECTION('',(0.,0.,-1.));
#901=DIRECTION('center_axis',(0.,0.,1.));
#902=DIRECTION('ref_axis',(-1.,0.,0.));
#903=DIRECTION('center_axis',(0.,0.,1.));
#904=DIRECTION('ref_axis',(-1.,0.,0.));
#905=DIRECTION('',(-0.70710678118655,-8.65956056235496E-17,-0.707106781186545));
#906=DIRECTION('center_axis',(0.,0.,-1.));
#907=DIRECTION('ref_axis',(-1.,0.,0.));
#908=DIRECTION('center_axis',(0.,0.,-1.));
#909=DIRECTION('ref_axis',(-1.,0.,0.));
#910=DIRECTION('',(0.,0.,-1.));
#911=DIRECTION('center_axis',(0.,0.,1.));
#912=DIRECTION('ref_axis',(-1.,0.,0.));
#913=DIRECTION('center_axis',(0.,0.,1.));
#914=DIRECTION('ref_axis',(-1.,0.,0.));
#915=DIRECTION('',(-0.70710678118655,-8.65956056235496E-17,-0.707106781186545));
#916=DIRECTION('center_axis',(0.,0.,-1.));
#917=DIRECTION('ref_axis',(-1.,0.,0.));
#918=DIRECTION('center_axis',(0.,0.,-1.));
#919=DIRECTION('ref_axis',(-1.,0.,0.));
#920=DIRECTION('',(0.,0.,-1.));
#921=DIRECTION('center_axis',(0.,0.,1.));
#922=DIRECTION('ref_axis',(-1.,0.,0.));
#923=DIRECTION('center_axis',(0.,0.,1.));
#924=DIRECTION('ref_axis',(-1.,0.,0.));
#925=DIRECTION('',(-0.707106781186548,-8.65956056235493E-17,-0.707106781186548));
#926=DIRECTION('center_axis',(0.,0.,-1.));
#927=DIRECTION('ref_axis',(-1.,0.,0.));
#928=DIRECTION('center_axis',(0.,0.,-1.));
#929=DIRECTION('ref_axis',(-1.,0.,0.));
#930=DIRECTION('',(0.,0.,-1.));
#931=DIRECTION('center_axis',(0.,0.,1.));
#932=DIRECTION('ref_axis',(-1.,0.,0.));
#933=DIRECTION('center_axis',(0.,-1.,0.));
#934=DIRECTION('ref_axis',(-1.,0.,0.));
#935=DIRECTION('center_axis',(0.,-1.,0.));
#936=DIRECTION('ref_axis',(-1.,0.,0.));
#937=DIRECTION('',(0.,-1.,0.));
#938=DIRECTION('center_axis',(0.,1.,0.));
#939=DIRECTION('ref_axis',(-1.,0.,0.));
#940=DIRECTION('center_axis',(0.,-0.707106781186548,-0.707106781186548));
#941=DIRECTION('ref_axis',(0.,0.707106781186548,-0.707106781186548));
#942=DIRECTION('',(-4.18691322315673E-16,0.707106781186548,-0.707106781186548));
#943=DIRECTION('',(-1.,0.,-2.96059473233376E-15));
#944=DIRECTION('',(1.,0.,2.96059473233376E-15));
#945=DIRECTION('',(-1.,0.,-2.96059473233376E-15));
#946=DIRECTION('',(2.09345661157837E-16,-0.707106781186548,0.707106781186548));
#947=DIRECTION('center_axis',(1.,0.,-2.96059473233375E-16));
#948=DIRECTION('ref_axis',(-2.96059473233375E-16,0.,-1.));
#949=DIRECTION('',(2.96059473233375E-16,0.,1.));
#950=DIRECTION('center_axis',(0.,-0.707106781186548,-0.707106781186547));
#951=DIRECTION('ref_axis',(0.,-0.707106781186547,0.707106781186548));
#952=DIRECTION('',(0.,-0.707106781186547,0.707106781186548));
#953=DIRECTION('',(-2.09345661157837E-16,0.707106781186547,-0.707106781186548));
#954=DIRECTION('',(-1.,0.,1.48029736616688E-15));
#955=DIRECTION('',(-1.,0.,1.48029736616688E-15));
#956=DIRECTION('',(-1.,0.,1.48029736616688E-15));
#957=DIRECTION('center_axis',(1.,0.,0.));
#958=DIRECTION('ref_axis',(0.,0.,-1.));
#959=DIRECTION('',(0.,0.,1.));
#960=DIRECTION('center_axis',(-1.,0.,5.9211894646675E-16));
#961=DIRECTION('ref_axis',(5.9211894646675E-16,0.,1.));
#962=DIRECTION('',(-5.9211894646675E-16,0.,-1.));
#963=DIRECTION('center_axis',(0.,1.,0.));
#964=DIRECTION('ref_axis',(-1.,0.,0.));
#965=DIRECTION('',(-1.26882631385732E-16,0.,1.));
#966=DIRECTION('',(1.26882631385732E-16,0.,-1.));
#967=DIRECTION('',(1.,0.,8.5401771125012E-16));
#968=DIRECTION('center_axis',(-1.,0.,2.96059473233375E-16));
#969=DIRECTION('ref_axis',(2.96059473233375E-16,0.,1.));
#970=DIRECTION('',(-2.96059473233375E-16,0.,-1.));
#971=DIRECTION('center_axis',(0.,1.,0.));
#972=DIRECTION('ref_axis',(-1.,0.,0.));
#973=DIRECTION('',(7.61295788314409E-16,0.,1.));
#974=DIRECTION('',(-8.88178419700125E-16,0.,-1.));
#975=DIRECTION('',(1.,0.,4.27008855625059E-15));
#976=DIRECTION('center_axis',(-1.,0.,0.));
#977=DIRECTION('ref_axis',(0.,1.,0.));
#978=DIRECTION('',(0.,0.,-1.));
#979=DIRECTION('',(0.,1.,0.));
#980=DIRECTION('',(0.,0.,-1.));
#981=DIRECTION('',(0.,-1.,0.));
#982=DIRECTION('center_axis',(1.,0.,0.));
#983=DIRECTION('ref_axis',(0.,-1.,0.));
#984=DIRECTION('',(0.,1.,0.));
#985=DIRECTION('',(0.,0.,-1.));
#986=DIRECTION('',(0.,-1.,0.));
#987=DIRECTION('',(0.,0.,-1.));
#988=DIRECTION('center_axis',(0.,1.,0.));
#989=DIRECTION('ref_axis',(1.,0.,0.));
#990=DIRECTION('',(1.,0.,0.));
#991=DIRECTION('center_axis',(0.,0.,-1.));
#992=DIRECTION('ref_axis',(-1.,0.,0.));
#993=DIRECTION('',(-1.,0.,0.));
#994=DIRECTION('center_axis',(0.,0.,-1.));
#995=DIRECTION('ref_axis',(-1.,0.,0.));
#996=DIRECTION('',(-1.,0.,0.));
#997=DIRECTION('',(0.,1.,0.));
#998=DIRECTION('',(-1.,0.,0.));
#999=DIRECTION('center_axis',(0.,0.,-1.));
#1000=DIRECTION('ref_axis',(-1.,0.,0.));
#1001=DIRECTION('',(-1.,0.,0.));
#1002=DIRECTION('',(0.,1.,0.));
#1003=DIRECTION('',(-1.,0.,0.));
#1004=DIRECTION('center_axis',(-1.,0.,-1.26882631385732E-16));
#1005=DIRECTION('ref_axis',(-1.26882631385732E-16,0.,1.));
#1006=DIRECTION('',(-1.26882631385732E-16,0.,1.));
#1007=DIRECTION('',(0.,1.,0.));
#1008=DIRECTION('',(1.26882631385732E-16,0.,-1.));
#1009=DIRECTION('',(0.,1.,0.));
#1010=DIRECTION('center_axis',(8.5401771125012E-16,0.,-1.));
#1011=DIRECTION('ref_axis',(-1.,0.,-8.5401771125012E-16));
#1012=DIRECTION('',(-1.,0.,-8.5401771125012E-16));
#1013=DIRECTION('',(0.,1.,0.));
#1014=DIRECTION('center_axis',(1.,0.,1.26882631385732E-16));
#1015=DIRECTION('ref_axis',(1.26882631385732E-16,0.,-1.));
#1016=DIRECTION('',(1.26882631385732E-16,0.,-1.));
#1017=DIRECTION('',(0.,1.,0.));
#1018=DIRECTION('',(-1.26882631385732E-16,0.,1.));
#1019=DIRECTION('center_axis',(0.,0.,1.));
#1020=DIRECTION('ref_axis',(1.,0.,0.));
#1021=DIRECTION('',(1.,0.,0.));
#1022=DIRECTION('',(-1.,0.,0.));
#1023=DIRECTION('center_axis',(2.8865798640254E-13,0.,1.));
#1024=DIRECTION('ref_axis',(1.,0.,-2.8865798640254E-13));
#1025=DIRECTION('',(1.,0.,-2.8865798640254E-13));
#1026=DIRECTION('',(0.,1.,0.));
#1027=DIRECTION('',(-1.,0.,2.8865798640254E-13));
#1028=DIRECTION('',(0.,1.,0.));
#1029=DIRECTION('center_axis',(-1.,0.,8.88178419700125E-16));
#1030=DIRECTION('ref_axis',(8.88178419700125E-16,0.,1.));
#1031=DIRECTION('',(8.88178419700125E-16,0.,1.));
#1032=DIRECTION('',(0.,1.,0.));
#1033=DIRECTION('',(-8.88178419700125E-16,0.,-1.));
#1034=DIRECTION('center_axis',(4.27008855625059E-15,0.,-1.));
#1035=DIRECTION('ref_axis',(-1.,0.,-4.27008855625059E-15));
#1036=DIRECTION('',(-1.,0.,-4.27008855625059E-15));
#1037=DIRECTION('',(0.,1.,0.));
#1038=DIRECTION('center_axis',(1.,0.,-7.61295788314409E-16));
#1039=DIRECTION('ref_axis',(-7.61295788314409E-16,0.,-1.));
#1040=DIRECTION('',(-7.61295788314409E-16,0.,-1.));
#1041=DIRECTION('',(7.61295788314409E-16,0.,1.));
#1042=DIRECTION('center_axis',(0.,0.,1.));
#1043=DIRECTION('ref_axis',(1.,0.,0.));
#1044=DIRECTION('',(1.,0.,0.));
#1045=DIRECTION('',(0.,1.,0.));
#1046=DIRECTION('',(1.,0.,0.));
#1047=DIRECTION('',(0.,1.,0.));
#1048=DIRECTION('center_axis',(-1.,0.,0.));
#1049=DIRECTION('ref_axis',(0.,0.,1.));
#1050=DIRECTION('',(0.,0.,1.));
#1051=DIRECTION('',(0.,0.,1.));
#1052=DIRECTION('center_axis',(1.,0.,-1.36642833800019E-16));
#1053=DIRECTION('ref_axis',(-1.36642833800019E-16,0.,-1.));
#1054=DIRECTION('',(-1.36642833800019E-16,0.,-1.));
#1055=DIRECTION('',(-1.36642833800019E-16,0.,-1.));
#1056=DIRECTION('center_axis',(0.,1.,0.));
#1057=DIRECTION('ref_axis',(0.,0.,1.));
#1058=DIRECTION('center_axis',(0.,1.,0.));
#1059=DIRECTION('ref_axis',(1.,0.,0.));
#1060=DIRECTION('',(0.,0.,1.));
#1061=DIRECTION('',(1.,0.,0.));
#1062=CARTESIAN_POINT('',(0.,0.,0.));
#1063=CARTESIAN_POINT('',(0.,0.,0.));
#1064=CARTESIAN_POINT('Origin',(-32.,22.0000003278255,-32.65));
#1065=CARTESIAN_POINT('',(-30.55,22.0000003278255,-32.5));
#1066=CARTESIAN_POINT('Origin',(-32.,22.0000003278255,-32.5));
#1067=CARTESIAN_POINT('',(-30.85,22.0000003278255,-32.8));
#1068=CARTESIAN_POINT('',(-30.7,22.0000003278255,-32.65));
#1069=CARTESIAN_POINT('Origin',(-32.,22.0000003278255,-32.8));
#1070=CARTESIAN_POINT('Origin',(-8.88178419700125E-15,13.5,-32.5));
#1071=CARTESIAN_POINT('',(-33.5000016624108,18.,-32.5000011874363));
#1072=CARTESIAN_POINT('',(-33.5000016624108,3.,-32.5000011874363));
#1073=CARTESIAN_POINT('',(-33.5000016624108,8.25,-32.5));
#1074=CARTESIAN_POINT('',(33.5000016624108,3.,-32.5000011874363));
#1075=CARTESIAN_POINT('',(45.,3.,-32.5));
#1076=CARTESIAN_POINT('',(33.5000016624108,18.,-32.5000011874363));
#1077=CARTESIAN_POINT('',(33.5000016624108,8.25,-32.5));
#1078=CARTESIAN_POINT('',(36.5000016624108,18.,-32.5000011874363));
#1079=CARTESIAN_POINT('',(17.5000008312054,18.,-32.5));
#1080=CARTESIAN_POINT('',(36.5000016624108,3.,-32.5000011874363));
#1081=CARTESIAN_POINT('',(36.5000016624108,8.25,-32.5));
#1082=CARTESIAN_POINT('',(42.5,3.,-32.5));
#1083=CARTESIAN_POINT('',(45.,3.,-32.5));
#1084=CARTESIAN_POINT('',(42.5,27.,-32.5));
#1085=CARTESIAN_POINT('',(42.5,0.,-32.5));
#1086=CARTESIAN_POINT('',(-42.5,27.,-32.5));
#1087=CARTESIAN_POINT('',(42.5,27.,-32.5));
#1088=CARTESIAN_POINT('',(-42.5,3.,-32.5));
#1089=CARTESIAN_POINT('',(-42.5,27.,-32.5));
#1090=CARTESIAN_POINT('',(-36.5000016624108,3.,-32.5000011874363));
#1091=CARTESIAN_POINT('',(45.,3.,-32.5));
#1092=CARTESIAN_POINT('',(-36.5000016624108,18.,-32.5000011874363));
#1093=CARTESIAN_POINT('',(-36.5000016624108,8.25,-32.5));
#1094=CARTESIAN_POINT('',(-17.5000008312054,18.,-32.5));
#1095=CARTESIAN_POINT('',(-14.55,22.0000003278255,-32.5));
#1096=CARTESIAN_POINT('Origin',(-16.,22.0000003278255,-32.5));
#1097=CARTESIAN_POINT('',(17.45,22.0000003278255,-32.5));
#1098=CARTESIAN_POINT('Origin',(16.,22.0000003278255,-32.5));
#1099=CARTESIAN_POINT('',(33.45,22.0000003278255,-32.5));
#1100=CARTESIAN_POINT('Origin',(32.,22.0000003278255,-32.5));
#1101=CARTESIAN_POINT('',(1.45,22.0000003278255,-32.5));
#1102=CARTESIAN_POINT('Origin',(0.,22.0000003278255,-32.5));
#1103=CARTESIAN_POINT('Origin',(-32.,22.0000003278255,-32.5));
#1104=CARTESIAN_POINT('',(-30.85,22.0000003278255,-35.5));
#1105=CARTESIAN_POINT('',(-30.85,22.0000003278255,-32.5));
#1106=CARTESIAN_POINT('Origin',(-32.,22.0000003278255,-35.5));
#1107=CARTESIAN_POINT('Origin',(-16.,22.0000003278255,-32.65));
#1108=CARTESIAN_POINT('',(-14.85,22.0000003278255,-32.8));
#1109=CARTESIAN_POINT('',(-14.7,22.0000003278255,-32.65));
#1110=CARTESIAN_POINT('Origin',(-16.,22.0000003278255,-32.8));
#1111=CARTESIAN_POINT('Origin',(-16.,22.0000003278255,-32.5));
#1112=CARTESIAN_POINT('',(-14.85,22.0000003278255,-35.5));
#1113=CARTESIAN_POINT('',(-14.85,22.0000003278255,-32.5));
#1114=CARTESIAN_POINT('Origin',(-16.,22.0000003278255,-35.5));
#1115=CARTESIAN_POINT('Origin',(0.,22.0000003278255,-32.65));
#1116=CARTESIAN_POINT('',(1.15,22.0000003278255,-32.8));
#1117=CARTESIAN_POINT('',(1.3,22.0000003278255,-32.65));
#1118=CARTESIAN_POINT('Origin',(0.,22.0000003278255,-32.8));
#1119=CARTESIAN_POINT('Origin',(0.,22.0000003278255,-32.5));
#1120=CARTESIAN_POINT('',(1.15,22.0000003278255,-35.5));
#1121=CARTESIAN_POINT('',(1.15,22.0000003278255,-32.5));
#1122=CARTESIAN_POINT('Origin',(0.,22.0000003278255,-35.5));
#1123=CARTESIAN_POINT('Origin',(16.,22.0000003278255,-32.65));
#1124=CARTESIAN_POINT('',(17.15,22.0000003278255,-32.8));
#1125=CARTESIAN_POINT('',(17.3,22.0000003278255,-32.65));
#1126=CARTESIAN_POINT('Origin',(16.,22.0000003278255,-32.8));
#1127=CARTESIAN_POINT('Origin',(16.,22.0000003278255,-32.5));
#1128=CARTESIAN_POINT('',(17.15,22.0000003278255,-35.5));
#1129=CARTESIAN_POINT('',(17.15,22.0000003278255,-32.5));
#1130=CARTESIAN_POINT('Origin',(16.,22.0000003278255,-35.5));
#1131=CARTESIAN_POINT('Origin',(32.,22.0000003278255,-32.65));
#1132=CARTESIAN_POINT('',(33.15,22.0000003278255,-32.8));
#1133=CARTESIAN_POINT('',(33.3,22.0000003278255,-32.65));
#1134=CARTESIAN_POINT('Origin',(32.,22.0000003278255,-32.8));
#1135=CARTESIAN_POINT('Origin',(32.,22.0000003278255,-32.5));
#1136=CARTESIAN_POINT('',(33.15,22.0000003278255,-35.5));
#1137=CARTESIAN_POINT('',(33.15,22.0000003278255,-32.5));
#1138=CARTESIAN_POINT('Origin',(32.,22.0000003278255,-35.5));
#1139=CARTESIAN_POINT('Origin',(0.,3.,-20.0000002980232));
#1140=CARTESIAN_POINT('',(5.,3.,-20.0000002980232));
#1141=CARTESIAN_POINT('Origin',(0.,3.,-20.0000002980232));
#1142=CARTESIAN_POINT('',(5.,0.,-20.0000002980232));
#1143=CARTESIAN_POINT('',(5.,3.,-20.0000002980232));
#1144=CARTESIAN_POINT('Origin',(0.,0.,-20.0000002980232));
#1145=CARTESIAN_POINT('Origin',(-36.5000016624108,3.,-17.5000011874363));
#1146=CARTESIAN_POINT('',(-36.5000016624108,3.,-17.5000011874363));
#1147=CARTESIAN_POINT('',(-36.5000016624108,6.75,-21.2500011874363));
#1148=CARTESIAN_POINT('',(-36.3000000000001,3.,-17.5000011874363));
#1149=CARTESIAN_POINT('',(-18.2500008312054,3.,-17.5000011874362));
#1150=CARTESIAN_POINT('',(-33.7000000000001,3.,-17.5000011874363));
#1151=CARTESIAN_POINT('',(-36.5000016624108,3.,-17.5000011874363));
#1152=CARTESIAN_POINT('',(-33.5000016624108,3.,-17.5000011874363));
#1153=CARTESIAN_POINT('',(-18.2500008312054,3.,-17.5000011874362));
#1154=CARTESIAN_POINT('',(-33.5000016624108,2.99999999999999,-17.5000011874363));
#1155=CARTESIAN_POINT('Origin',(-33.5000016624108,3.,-17.5000011874363));
#1156=CARTESIAN_POINT('',(-33.5000016624108,3.,-8.75000059371814));
#1157=CARTESIAN_POINT('Origin',(36.5000016624108,18.,-32.5000011874363));
#1158=CARTESIAN_POINT('',(36.5000016624108,3.,-17.5000011874363));
#1159=CARTESIAN_POINT('',(36.5000016624108,10.5,-25.0000011874363));
#1160=CARTESIAN_POINT('',(33.5000016624108,3.,-17.5000011874363));
#1161=CARTESIAN_POINT('',(33.5000016624108,14.25,-28.7500011874363));
#1162=CARTESIAN_POINT('',(33.7000000000001,3.,-17.5000011874363));
#1163=CARTESIAN_POINT('',(16.7500008312054,3.,-17.5000011874363));
#1164=CARTESIAN_POINT('',(36.3000000000001,3.,-17.5000011874363));
#1165=CARTESIAN_POINT('',(36.5000016624108,3.,-17.5000011874363));
#1166=CARTESIAN_POINT('',(16.7500008312054,3.,-17.5000011874363));
#1167=CARTESIAN_POINT('Origin',(36.5000016624108,3.,-17.5000011874363));
#1168=CARTESIAN_POINT('',(36.5000016624108,3.,-8.75000059371816));
#1169=CARTESIAN_POINT('Origin',(-36.5000016624108,3.,-32.5000011874363));
#1170=CARTESIAN_POINT('',(-36.5000016624108,3.,-16.2500005937181));
#1171=CARTESIAN_POINT('Origin',(-35.0000016624108,3.,-25.0000011874363));
#1172=CARTESIAN_POINT('',(-33.7000000000001,3.,-17.5001447607648));
#1173=CARTESIAN_POINT('',(-33.7000000000001,3.,8.74992761961758));
#1174=CARTESIAN_POINT('',(-36.3000000000001,3.,-17.5001447607648));
#1175=CARTESIAN_POINT('',(-36.3000000000001,3.,-8.75007238038243));
#1176=CARTESIAN_POINT('',(-16.8500000000001,3.,-17.5001447607648));
#1177=CARTESIAN_POINT('Origin',(33.5000016624108,3.,-32.5000011874363));
#1178=CARTESIAN_POINT('',(33.5000016624108,3.,-16.2500005937182));
#1179=CARTESIAN_POINT('Origin',(35.0000016624108,3.,-25.0000011874363));
#1180=CARTESIAN_POINT('',(36.3000000000001,3.,-17.5001447607649));
#1181=CARTESIAN_POINT('',(36.3000000000002,3.,8.74992761961719));
#1182=CARTESIAN_POINT('',(33.7000000000001,3.,-17.5001447607649));
#1183=CARTESIAN_POINT('',(33.7000000000001,3.,-8.75007238038245));
#1184=CARTESIAN_POINT('',(18.1500000000001,3.,-17.5001447607649));
#1185=CARTESIAN_POINT('Origin',(-42.5,0.,-32.5));
#1186=CARTESIAN_POINT('',(-42.5,27.,-35.5));
#1187=CARTESIAN_POINT('',(-42.5,27.,-32.5));
#1188=CARTESIAN_POINT('',(-42.5,0.,-35.5));
#1189=CARTESIAN_POINT('',(-42.5,27.,-35.5));
#1190=CARTESIAN_POINT('',(-42.5,0.,-32.5));
#1191=CARTESIAN_POINT('',(-42.5,0.,-32.5));
#1192=CARTESIAN_POINT('',(-42.5,0.,-32.5));
#1193=CARTESIAN_POINT('Origin',(42.5,27.,-32.5));
#1194=CARTESIAN_POINT('',(42.5,0.,-32.5));
#1195=CARTESIAN_POINT('',(42.5,13.5,-32.5));
#1196=CARTESIAN_POINT('',(42.5,0.,-35.5));
#1197=CARTESIAN_POINT('',(42.5,0.,-32.5));
#1198=CARTESIAN_POINT('',(42.5,27.,-35.5));
#1199=CARTESIAN_POINT('',(42.5,0.,-35.5));
#1200=CARTESIAN_POINT('',(42.5,27.,-32.5));
#1201=CARTESIAN_POINT('Origin',(-42.5,27.,-32.5));
#1202=CARTESIAN_POINT('',(42.5,27.,-35.5));
#1203=CARTESIAN_POINT('Origin',(-8.88178419700125E-15,13.5,-35.5));
#1204=CARTESIAN_POINT('',(-42.5,0.,-35.5));
#1205=CARTESIAN_POINT('Origin',(45.,0.,-32.5));
#1206=CARTESIAN_POINT('',(-45.,0.,-32.5));
#1207=CARTESIAN_POINT('',(45.,0.,-32.5));
#1208=CARTESIAN_POINT('',(-45.,3.,-32.5));
#1209=CARTESIAN_POINT('',(-45.,0.,-32.5));
#1210=CARTESIAN_POINT('',(45.,3.,-32.5));
#1211=CARTESIAN_POINT('Origin',(45.,0.,-32.5));
#1212=CARTESIAN_POINT('',(45.,3.,-32.5));
#1213=CARTESIAN_POINT('',(45.,3.,-32.5));
#1214=CARTESIAN_POINT('',(45.,0.,-32.5));
#1215=CARTESIAN_POINT('',(45.,0.,-32.5));
#1216=CARTESIAN_POINT('',(45.,0.,-32.5));
#1217=CARTESIAN_POINT('Origin',(-36.3000000000001,0.,-17.5001447607648));
#1218=CARTESIAN_POINT('',(-36.3000000000001,0.,-17.5001447607648));
#1219=CARTESIAN_POINT('',(-36.3000000000001,0.,17.4998552392352));
#1220=CARTESIAN_POINT('',(-36.3000000000001,0.,-8.75007238038243));
#1221=CARTESIAN_POINT('',(-36.3000000000001,0.,-17.5001447607648));
#1222=CARTESIAN_POINT('',(-36.3000000000001,3.,17.4998552392352));
#1223=CARTESIAN_POINT('',(-36.3000000000001,3.,-8.75007238038243));
#1224=CARTESIAN_POINT('',(-36.3000000000001,0.,17.4998552392352));
#1225=CARTESIAN_POINT('Origin',(-33.7000000000001,0.,-17.5001447607648));
#1226=CARTESIAN_POINT('',(-33.7000000000001,0.,-17.5001447607648));
#1227=CARTESIAN_POINT('',(-16.8500000000001,0.,-17.5001447607648));
#1228=CARTESIAN_POINT('',(-33.7000000000001,0.,-17.5001447607648));
#1229=CARTESIAN_POINT('Origin',(-33.7000000000001,0.,17.4998552392352));
#1230=CARTESIAN_POINT('',(-33.7000000000001,0.,17.4998552392352));
#1231=CARTESIAN_POINT('',(-33.7000000000001,0.,8.74992761961758));
#1232=CARTESIAN_POINT('',(-33.7000000000001,3.,17.4998552392352));
#1233=CARTESIAN_POINT('',(-33.7000000000001,0.,17.4998552392352));
#1234=CARTESIAN_POINT('',(-33.7000000000001,3.,8.74992761961758));
#1235=CARTESIAN_POINT('Origin',(-36.3000000000001,0.,17.4998552392352));
#1236=CARTESIAN_POINT('',(-18.1500000000001,0.,17.4998552392352));
#1237=CARTESIAN_POINT('',(-18.1500000000001,3.,17.4998552392352));
#1238=CARTESIAN_POINT('Origin',(33.7000000000002,0.,17.4998552392351));
#1239=CARTESIAN_POINT('',(33.7000000000002,0.,17.4998552392351));
#1240=CARTESIAN_POINT('',(36.3000000000002,0.,17.4998552392344));
#1241=CARTESIAN_POINT('',(16.8500000000026,0.,17.49985523924));
#1242=CARTESIAN_POINT('',(33.7000000000002,3.,17.4998552392351));
#1243=CARTESIAN_POINT('',(33.7000000000002,0.,17.4998552392351));
#1244=CARTESIAN_POINT('',(36.3000000000002,3.,17.4998552392344));
#1245=CARTESIAN_POINT('',(16.8500000000026,3.,17.49985523924));
#1246=CARTESIAN_POINT('',(36.3000000000002,0.,17.4998552392344));
#1247=CARTESIAN_POINT('Origin',(33.7000000000001,0.,-17.5001447607649));
#1248=CARTESIAN_POINT('',(33.7000000000001,0.,-17.5001447607649));
#1249=CARTESIAN_POINT('',(33.7000000000001,0.,-8.75007238038245));
#1250=CARTESIAN_POINT('',(33.7000000000001,0.,-17.5001447607649));
#1251=CARTESIAN_POINT('',(33.7000000000001,3.,-8.75007238038245));
#1252=CARTESIAN_POINT('Origin',(36.3000000000001,0.,-17.5001447607649));
#1253=CARTESIAN_POINT('',(36.3000000000001,0.,-17.5001447607649));
#1254=CARTESIAN_POINT('',(18.1500000000001,0.,-17.5001447607649));
#1255=CARTESIAN_POINT('',(36.3000000000001,0.,-17.5001447607649));
#1256=CARTESIAN_POINT('Origin',(36.3000000000002,0.,17.4998552392344));
#1257=CARTESIAN_POINT('',(36.3000000000002,0.,8.74992761961719));
#1258=CARTESIAN_POINT('',(36.3000000000002,3.,8.74992761961719));
#1259=CARTESIAN_POINT('Origin',(-45.,0.,32.5));
#1260=CARTESIAN_POINT('',(-45.,0.,32.5));
#1261=CARTESIAN_POINT('',(45.,0.,32.5));
#1262=CARTESIAN_POINT('',(-45.,0.,32.5));
#1263=CARTESIAN_POINT('',(45.,3.,32.5));
#1264=CARTESIAN_POINT('',(45.,0.,32.5));
#1265=CARTESIAN_POINT('',(-45.,3.,32.5));
#1266=CARTESIAN_POINT('',(-45.,3.,32.5));
#1267=CARTESIAN_POINT('',(-45.,0.,32.5));
#1268=CARTESIAN_POINT('Origin',(-45.,0.,-32.5));
#1269=CARTESIAN_POINT('',(-45.,0.,-32.5));
#1270=CARTESIAN_POINT('',(-45.,3.,-32.5));
#1271=CARTESIAN_POINT('Origin',(45.,0.,32.5));
#1272=CARTESIAN_POINT('',(45.,0.,32.5));
#1273=CARTESIAN_POINT('',(45.,3.,32.5));
#1274=CARTESIAN_POINT('Origin',(0.,3.,0.));
#1275=CARTESIAN_POINT('Origin',(0.,0.,0.));
#1276=CARTESIAN_POINT('',(0.,0.,0.));
#1277=UNCERTAINTY_MEASURE_WITH_UNIT(LENGTH_MEASURE(0.01),#1283,
'DISTANCE_ACCURACY_VALUE',
'Maximum model space distance between geometric entities at asserted c
onnectivities');
#1278=UNCERTAINTY_MEASURE_WITH_UNIT(LENGTH_MEASURE(0.01),#1283,
'DISTANCE_ACCURACY_VALUE',
'Maximum model space distance between geometric entities at asserted c
onnectivities');
#1279=UNCERTAINTY_MEASURE_WITH_UNIT(LENGTH_MEASURE(0.01),#1283,
'DISTANCE_ACCURACY_VALUE',
'Maximum model space distance between geometric entities at asserted c
onnectivities');
#1280=(
GEOMETRIC_REPRESENTATION_CONTEXT(3)
GLOBAL_UNCERTAINTY_ASSIGNED_CONTEXT((#1277))
GLOBAL_UNIT_ASSIGNED_CONTEXT((#1283,#1285,#1286))
REPRESENTATION_CONTEXT('','3D')
);
#1281=(
GEOMETRIC_REPRESENTATION_CONTEXT(3)
GLOBAL_UNCERTAINTY_ASSIGNED_CONTEXT((#1278))
GLOBAL_UNIT_ASSIGNED_CONTEXT((#1283,#1285,#1286))
REPRESENTATION_CONTEXT('','3D')
);
#1282=(
GEOMETRIC_REPRESENTATION_CONTEXT(3)
GLOBAL_UNCERTAINTY_ASSIGNED_CONTEXT((#1279))
GLOBAL_UNIT_ASSIGNED_CONTEXT((#1283,#1285,#1286))
REPRESENTATION_CONTEXT('','3D')
);
#1283=(
LENGTH_UNIT()
NAMED_UNIT(*)
SI_UNIT(.MILLI.,.METRE.)
);
#1284=(
LENGTH_UNIT()
NAMED_UNIT(*)
SI_UNIT($,.METRE.)
);
#1285=(
NAMED_UNIT(*)
PLANE_ANGLE_UNIT()
SI_UNIT($,.RADIAN.)
);
#1286=(
NAMED_UNIT(*)
SI_UNIT($,.STERADIAN.)
SOLID_ANGLE_UNIT()
);
#1287=SHAPE_DEFINITION_REPRESENTATION(#1289,#1292);
#1288=SHAPE_DEFINITION_REPRESENTATION(#1290,#1293);
#1289=PRODUCT_DEFINITION_SHAPE('',$,#1295);
#1290=PRODUCT_DEFINITION_SHAPE('',$,#1296);
#1291=PRODUCT_DEFINITION_SHAPE($,$,#14);
#1292=SHAPE_REPRESENTATION('',(#796,#854),#1280);
#1293=SHAPE_REPRESENTATION('',(#797),#1281);
#1294=PRODUCT_DEFINITION_CONTEXT('part definition',#1302,'design');
#1295=PRODUCT_DEFINITION('2026-06-21-19-30-25-528','tcrt-adapter',#1297,
#1294);
#1296=PRODUCT_DEFINITION('2026-06-21-22-05-45-043','TCRT_Sensor_Slider',
#1298,#1294);
#1297=PRODUCT_DEFINITION_FORMATION('',$,#1304);
#1298=PRODUCT_DEFINITION_FORMATION('',$,#1305);
#1299=PRODUCT_RELATED_PRODUCT_CATEGORY('tcrt-adapter','tcrt-adapter',(#1304));
#1300=PRODUCT_RELATED_PRODUCT_CATEGORY('TCRT_Sensor_Slider',
'TCRT_Sensor_Slider',(#1305));
#1301=APPLICATION_PROTOCOL_DEFINITION('international standard',
'automotive_design',2009,#1302);
#1302=APPLICATION_CONTEXT(
'Core Data for Automotive Mechanical Design Process');
#1303=PRODUCT_CONTEXT('part definition',#1302,'mechanical');
#1304=PRODUCT('2026-06-21-19-30-25-528','tcrt-adapter',$,(#1303));
#1305=PRODUCT('2026-06-21-22-05-45-043','TCRT_Sensor_Slider',$,(#1303));
#1306=PRESENTATION_STYLE_ASSIGNMENT((#1307));
#1307=SURFACE_STYLE_USAGE(.BOTH.,#1308);
#1308=SURFACE_SIDE_STYLE('',(#1309));
#1309=SURFACE_STYLE_FILL_AREA(#1310);
#1310=FILL_AREA_STYLE('Steel - Satin',(#1311));
#1311=FILL_AREA_STYLE_COLOUR('Steel - Satin',#1312);
#1312=COLOUR_RGB('Steel - Satin',0.627450980392157,0.627450980392157,0.627450980392157);
ENDSEC;
END-ISO-10303-21;
